<svg id="Layer_1" data-name="Layer 1" xmlns="http://www.w3.org/2000/svg" viewBox="0 0 504.7 505.7"><defs><style>.cls-1{fill:#fff;}</style></defs><title>consent-bg</title><path class="cls-1" d="M164,537.9H33.5c61.7-84.6,122.9-168.7,184.4-253C156.5,200.6,95.4,116.7,33.9,32.3H164.5q95.1,126,191,253.2Q259.5,412.1,164,537.9Z" transform="translate(-33.5 -32.2)"/><path class="cls-1" d="M374.9,259c-22.6-30-44.9-59.6-67.5-89.7L410.3,32.2H538.2C483.4,108.2,429.3,183.4,374.9,259Z" transform="translate(-33.5 -32.2)"/><path class="cls-1" d="M538.2,537.8H410.3Q359.45,470,307.8,401.1c22.5-29.9,44.9-59.6,67.6-89.6C429.7,387,483.7,462,538.2,537.8Z" transform="translate(-33.5 -32.2)"/></svg>